PathFileType	4	(X/Y/Z)	c:\Git\powerlifing_model_clean\simulations\HC835B\Session1\HC835B_CUT_0002\marker_experimental.trc
DataRate	CameraRate	NumFrames	NumMarkers	Units	OrigDataRate	OrigDataStartFrame	OrigNumFrames
240.000000	240.000000	4	38	mm	240.000000	61	82
Frame#	Time	RPSI			LPSI			RASI			LASI			RTH1			RTH2			RTH3			RTH4			RSK1			RSK2			RSK3			RSK4			RCAL1			RCAL2			RCAL3			RST			RPT			RTN			RFMB			RSMB			RVMB			RFMH			RSMH			RVMH			RPM			LTH1			LTH2			LTH3			LTH4			LSK1			LSK2			LSK3			LSK4			LCAL1			LCAL2			LCAL3			LFMH			LVMH			
		X1	Y1	Z1	X2	Y2	Z2	X3	Y3	Z3	X4	Y4	Z4	X5	Y5	Z5	X6	Y6	Z6	X7	Y7	Z7	X8	Y8	Z8	X9	Y9	Z9	X10	Y10	Z10	X11	Y11	Z11	X12	Y12	Z12	X13	Y13	Z13	X14	Y14	Z14	X15	Y15	Z15	X16	Y16	Z16	X17	Y17	Z17	X18	Y18	Z18	X19	Y19	Z19	X20	Y20	Z20	X21	Y21	Z21	X22	Y22	Z22	X23	Y23	Z23	X24	Y24	Z24	X25	Y25	Z25	X26	Y26	Z26	X27	Y27	Z27	X28	Y28	Z28	X29	Y29	Z29	X30	Y30	Z30	X31	Y31	Z31	X32	Y32	Z32	X33	Y33	Z33	X34	Y34	Z34	X35	Y35	Z35	X36	Y36	Z36	X37	Y37	Z37	X38	Y38	Z38	

62	0.2541666666666667	-179.8234252929688	1094.535522460938	-825.7527465820315	-271.8879394531251	1059.851440429688	-773.282165527344	-219.2013397216797	1022.972229003906	-1034.34716796875	-419.4024353027345	973.8477172851565	-912.6140747070315	-11.26389122009278	818.5539550781252	-945.715759277344	-41.3856315612793	780.166687011719	-981.845642089844	3.662119150161744	735.7858886718751	-935.711120605469	-32.29171752929688	697.7171630859376	-961.7864990234377	206.8037261962891	391.8280639648439	-692.5895385742189	202.7136688232422	353.0762329101563	-740.5319824218751	225.8250885009766	336.7452087402344	-686.6027832031251	211.5732421875001	296.0856628417969	-728.6418457031251	255.0599822998047	233.6492919921876	-571.8186645507814	222.369613647461	207.5298309326172	-544.5886230468751	285.8089599609376	199.2952575683594	-556.3723144531251	193.2352752685547	171.8341522216797	-601.9573974609376	296.2907104492188	163.3995361328125	-608.2067871093751	197.4011535644532	147.5892944335938	-654.5320434570314	192.8343505859376	113.2696838378907	-664.9124145507814	237.0969238281251	113.689697265625	-696.1867675781251	296.4895629882813	110.4213333129883	-621.1582641601564	176.0232543945313	59.59865570068361	-672.2277221679689	224.2370605468751	52.6232261657715	-705.5230102539064	298.9954833984376	46.57628250122071	-666.2647094726564	194.5074310302735	35.72834396362305	-738.1043701171876	-446.9854125976564	742.1597900390626	-966.4312744140627	-462.8810119628907	769.6055297851565	-1006.904296875	-467.7067871093751	704.1184082031251	-1038.725952148438	-487.1695556640626	741.8193359375001	-1082.374145507813	-286.9561767578126	373.1223754882813	-1064.255737304688	-301.6594848632813	336.1353454589844	-1099.99951171875	-264.0763244628907	320.8358764648438	-1070.627563476563	-270.0907592773438	290.6074218750001	-1118.1484375	-120.7958374023438	231.1340026855469	-1031.15380859375	-128.5448913574219	187.224853515625	-1013.505676269531	-83.54234313964845	205.5858001708985	-1046.382446289063	-178.98828125	149.2981719970703	-1238.541137695313	-230.8210144042969	97.82609558105472	-1152.235717773438	
63	0.2583333333333333	-190.9709930419922	1097.33447265625	-842.5985107421877	-281.6435852050782	1061.9990234375	-790.4274902343752	-229.2875061035157	1023.711669921875	-1051.009521484375	-428.277801513672	976.0935058593752	-930.473083496094	-18.43946266174317	821.781188964844	-961.089294433594	-48.07552719116212	782.311462402344	-996.497009277344	-2.639474630355835	739.3505249023439	-949.4028930664065	-38.09115982055665	700.4250488281251	-974.9685058593752	203.7384796142579	398.4383239746095	-703.1176757812501	199.5588531494141	359.5560913085938	-750.9577636718751	222.7130889892579	343.3932800292969	-696.9716796875001	208.4690551757813	302.5352172851563	-738.9799194335939	250.744613647461	244.2376251220704	-583.6674194335939	217.6164245605469	219.4668884277344	-555.8192749023439	281.5848083496094	211.1300811767579	-566.0338134765626	189.632308959961	180.565414428711	-611.6021118164064	293.0565490722657	172.687973022461	-616.0037841796876	194.9394073486329	153.9911346435547	-663.0812988281251	190.6726837158203	118.9130477905274	-671.7496948242189	235.5984954833985	118.72412109375	-702.6228637695314	293.7891540527344	119.3459396362305	-626.4657592773439	174.6389923095703	64.38205718994142	-677.2327270507814	223.2335205078126	55.62277221679689	-709.0748901367189	296.2785339355469	52.74395751953126	-668.5020751953126	194.7759094238282	34.8503761291504	-740.3123779296876	-454.6885986328126	743.8877563476564	-982.4680175781252	-472.5455322265626	770.6503906250002	-1023.105773925781	-475.3749389648439	704.9212036132814	-1054.939453125	-496.4042968750001	742.1065063476564	-1098.367553710938	-297.7320251464844	366.5775756835938	-1090.512084960938	-314.1475830078126	331.2230529785157	-1127.263671875	-276.4013977050782	314.1630554199219	-1099.201049804688	-284.0492858886719	285.4852294921876	-1147.771362304688	-133.8442993164063	219.8583679199219	-1066.489135742188	-142.5813140869141	175.012451171875	-1050.71826171875	-97.93947601318362	193.9626617431641	-1083.639770507813	-198.3580017089844	147.8567504882813	-1275.983642578125	-249.4280700683594	93.42839813232423	-1190.84033203125	
64	0.2625	-199.8211364746094	1100.375610351563	-859.4899902343752	-291.4142761230469	1064.118896484375	-807.5294189453127	-238.9335479736329	1024.292724609375	-1068.105712890625	-437.9873657226564	978.9031982421877	-947.9410400390627	-25.67516326904298	824.9595947265627	-976.2664184570315	-54.55259704589845	784.7657470703127	-1011.347045898438	-9.025959968566896	742.9000854492189	-963.3756103515627	-43.7639274597168	703.1951293945314	-988.742858886719	199.9276275634766	405.2876892089845	-714.3868408203126	195.5584411621094	365.8778381347657	-761.7691040039064	219.0201110839844	350.2608642578126	-707.7341308593751	204.7178192138672	309.0328369140626	-749.2807006835939	246.6061096191407	255.0998535156251	-595.2352294921876	213.5206146240235	231.3960418701172	-566.6007690429689	277.5825500488282	223.2134399414063	-575.6485595703126	186.2931823730469	190.267318725586	-621.6964721679689	289.9150390625001	182.7414245605469	-623.8347778320314	192.5151824951172	160.854965209961	-671.2439575195314	188.9306793212891	125.336669921875	-678.5443725585939	234.1595153808594	124.8199310302735	-709.0718994140626	291.2969970703126	129.009017944336	-631.9846801757814	174.1933746337891	69.84767150878908	-682.8452758789064	223.0857086181641	59.20366287231447	-712.6147460937501	293.5765991210938	60.19890594482423	-671.2199096679689	196.0794677734376	33.87390899658204	-742.9647827148439	-462.2480773925782	745.3491821289064	-998.3745117187502	-497.1637573242189	777.8845214843752	-1036.864624023438	-483.1922607421876	705.3045043945314	-1070.847534179688	-505.1150817871095	741.6584472656251	-1114.411865234375	-308.6729125976563	359.8000488281251	-1116.765869140625	-326.6009521484376	326.0501708984376	-1154.640869140625	-288.5619506835938	307.2314758300782	-1127.799560546875	-297.9528198242188	280.6826171875001	-1177.078369140625	-147.4876251220703	208.7164916992188	-1101.8193359375	-157.1062164306641	163.1663513183594	-1087.92236328125	-112.6458740234375	182.6443481445313	-1120.855712890625	-217.6627807617188	147.1372528076172	-1313.005126953125	-268.4430236816407	89.95577239990236	-1229.167114257813	
65	0.2666666666666667	-212.0541534423829	1102.739135742188	-876.1503906250002	-301.2832336425782	1066.258911132813	-824.5146484375002	-249.2272186279297	1025.32275390625	-1084.332763671875	-448.4229736328126	981.6990966796877	-965.0290527343752	-33.07231521606446	828.2706298828127	-991.2634887695315	-61.12121200561525	787.434509277344	-1026.425659179688	-15.51842403411866	746.4997558593751	-977.6624755859377	-49.42831420898439	706.2062377929689	-1003.235961914063	195.5675659179688	412.3222045898439	-726.6111450195314	190.6372528076172	371.9286499023438	-772.9984130859377	214.7315216064454	357.4148559570313	-718.9270629882814	200.3373565673829	315.4287719726563	-759.6249389648439	242.3580780029297	266.4894104003907	-606.1966552734376	209.5821990966797	243.3212585449219	-577.0754394531251	273.6103210449219	235.8776245117188	-585.2579956054689	183.2208862304688	199.2088623046876	-630.1619873046876	286.8715209960938	193.6712036132813	-631.7521972656251	190.1521301269532	168.2077331542969	-679.0667724609376	187.5163269042969	132.2289123535157	-685.3003540039064	232.7907714843751	131.7598876953125	-715.4853515625001	289.2068786621094	139.8275909423828	-637.8589477539064	173.8782043457032	75.41299438476564	-688.9071044921876	223.5473632812501	64.4642791748047	-716.0379638671876	291.7199401855469	68.90447235107423	-674.4104003906251	198.1102142333985	32.70655059814454	-745.3906860351564	-469.6684875488282	746.4785156250001	-1014.171569824219	-505.745330810547	777.7246093750002	-1052.864013671875	-490.6412353515626	705.3730468750001	-1086.445190429688	-513.4820556640626	740.5952758789064	-1130.098388671875	-319.4146118164063	352.7881469726563	-1142.911865234375	-338.9017944335938	321.1029663085938	-1181.482543945313	-300.4459838867188	300.2030639648438	-1156.685791015625	-311.5211791992188	276.2448730468751	-1206.595458984375	-161.4293975830078	197.8572082519532	-1137.203369140625	-172.0024108886719	151.8335571289063	-1124.970458984375	-127.6828842163086	171.6866607666016	-1157.861083984375	-236.9256744384766	146.8338470458985	-1349.237060546875	-287.6243286132813	87.27453613281251	-1267.099975585938	
